G75*
%MOIN*%
%OFA0B0*%
%FSLAX25Y25*%
%IPPOS*%
%LPD*%
%AMOC8*
5,1,8,0,0,1.08239X$1,22.5*
%
%ADD10C,0.02400*%
%ADD11C,0.00600*%
%ADD12R,0.07874X0.05906*%
%ADD13C,0.10000*%
%ADD14OC8,0.10000*%
%ADD15OC8,0.12400*%
%ADD16C,0.12400*%
%ADD17C,0.05200*%
%ADD18C,0.07050*%
%ADD19C,0.07874*%
%ADD20C,0.06000*%
%ADD21R,0.07087X0.07087*%
%ADD22C,0.05000*%
%ADD23C,0.03000*%
D10*
X0002200Y0002200D02*
X0002200Y0127161D01*
X0221901Y0127161D01*
X0221901Y0002200D01*
X0002200Y0002200D01*
D11*
X0181915Y0010500D02*
X0185118Y0012635D01*
X0181915Y0014770D01*
X0185118Y0016905D02*
X0185118Y0010500D01*
X0187293Y0012635D02*
X0191564Y0012635D01*
X0191564Y0011568D02*
X0191564Y0013703D01*
X0190496Y0014770D01*
X0188361Y0014770D01*
X0187293Y0013703D01*
X0187293Y0012635D01*
X0188361Y0010500D02*
X0190496Y0010500D01*
X0191564Y0011568D01*
X0193739Y0014770D02*
X0195874Y0012635D01*
X0195874Y0011568D02*
X0195874Y0010500D01*
X0200184Y0011568D02*
X0200184Y0013703D01*
X0201252Y0014770D01*
X0203387Y0014770D01*
X0204455Y0013703D01*
X0204455Y0011568D01*
X0203387Y0010500D01*
X0201252Y0010500D01*
X0200184Y0011568D01*
X0206630Y0010500D02*
X0206630Y0016905D01*
X0210900Y0016905D02*
X0210900Y0010500D01*
X0208765Y0012635D01*
X0206630Y0010500D01*
X0198009Y0015838D02*
X0196941Y0016905D01*
X0194806Y0016905D01*
X0193739Y0015838D01*
X0193739Y0014770D01*
D12*
X0162200Y0068294D03*
X0162200Y0080106D03*
D13*
X0092200Y0050200D03*
X0113200Y0022200D03*
D14*
X0093200Y0022200D03*
X0092200Y0070200D03*
D15*
X0040200Y0070200D03*
D16*
X0040200Y0100200D03*
D17*
X0117200Y0082800D02*
X0117200Y0077600D01*
X0127200Y0077600D02*
X0127200Y0082800D01*
X0137200Y0082800D02*
X0137200Y0077600D01*
X0147200Y0077600D02*
X0147200Y0082800D01*
X0147200Y0052800D02*
X0147200Y0047600D01*
X0137200Y0047600D02*
X0137200Y0052800D01*
X0127200Y0052800D02*
X0127200Y0047600D01*
X0117200Y0047600D02*
X0117200Y0052800D01*
D18*
X0066043Y0037725D02*
X0066043Y0030675D01*
X0046357Y0030675D02*
X0046357Y0037725D01*
X0084357Y0096675D02*
X0084357Y0103725D01*
X0104043Y0103725D02*
X0104043Y0096675D01*
D19*
X0141200Y0032200D03*
X0151200Y0032200D03*
D20*
X0199200Y0065200D02*
X0205200Y0065200D01*
X0182200Y0072200D02*
X0182200Y0078200D01*
X0199200Y0085200D02*
X0205200Y0085200D01*
D21*
X0139102Y0100200D03*
X0127298Y0100200D03*
X0169298Y0038200D03*
X0181102Y0038200D03*
D22*
X0208200Y0038200D01*
X0215200Y0051200D01*
X0215200Y0100200D01*
X0202200Y0116200D01*
X0127200Y0116200D01*
X0117200Y0106200D01*
X0112043Y0113357D01*
X0090357Y0113357D01*
X0084357Y0103357D01*
X0081200Y0100200D01*
X0084357Y0100200D01*
X0081200Y0100200D02*
X0040200Y0100200D01*
X0040200Y0070200D02*
X0040200Y0061200D01*
X0046200Y0052200D01*
X0046200Y0034357D01*
X0046357Y0034200D01*
X0040200Y0070200D02*
X0091200Y0070200D01*
X0092200Y0070200D02*
X0109200Y0070200D01*
X0111200Y0068200D01*
X0117200Y0068200D01*
X0117200Y0068294D01*
X0162200Y0068294D01*
X0182200Y0075200D02*
X0182200Y0057200D01*
X0190200Y0065200D01*
X0202200Y0065200D01*
X0182200Y0057200D02*
X0175700Y0050700D01*
X0181102Y0045298D01*
X0181102Y0038200D01*
X0175200Y0050200D02*
X0147200Y0050200D01*
X0117200Y0050200D02*
X0117200Y0068200D01*
X0109200Y0070200D02*
X0104043Y0075357D01*
X0104043Y0085200D01*
X0104043Y0100200D01*
X0117200Y0106200D02*
X0117200Y0080200D01*
D23*
X0127200Y0080200D02*
X0132200Y0080200D01*
X0132200Y0090200D01*
X0165200Y0090200D01*
X0173200Y0082200D01*
X0173200Y0065200D01*
X0169200Y0060200D01*
X0131200Y0060200D01*
X0127200Y0055200D01*
X0127200Y0050200D01*
X0127200Y0043200D01*
X0118200Y0039200D01*
X0100200Y0039200D01*
X0092200Y0043200D01*
X0092200Y0050200D01*
X0066043Y0034200D02*
X0068043Y0030357D01*
X0076200Y0022200D01*
X0093200Y0022200D01*
X0113200Y0022200D02*
X0141200Y0022200D01*
X0151200Y0030200D01*
X0151200Y0032200D01*
X0164298Y0032200D01*
X0169298Y0038200D01*
X0175200Y0050200D02*
X0175700Y0050700D01*
X0141200Y0032200D02*
X0137200Y0036200D01*
X0137200Y0050200D01*
X0137200Y0080200D02*
X0132200Y0080200D01*
X0147200Y0080200D02*
X0162200Y0080200D01*
X0162200Y0080106D01*
X0161106Y0080294D01*
X0132200Y0090200D02*
X0127298Y0094102D01*
X0127298Y0100200D01*
X0139102Y0100200D02*
X0195200Y0100200D01*
X0202200Y0094200D01*
X0202200Y0085200D01*
X0104043Y0085200D02*
X0103043Y0086200D01*
M02*
